<mxfile host="Electron" agent="Mozilla/5.0 (Windows NT 10.0; Win64; x64) AppleWebKit/537.36 (KHTML, like Gecko) draw.io/24.7.17 Chrome/128.0.6613.36 Electron/32.0.1 Safari/537.36" version="24.7.17">
  <diagram name="Page-1" id="LbB5rhSDMGtBh9T1JbQA">
    <mxGraphModel dx="1728" dy="1003" grid="1" gridSize="10" guides="1" tooltips="1" connect="1" arrows="1" fold="1" page="1" pageScale="1" pageWidth="1654" pageHeight="2336" math="0" shadow="0">
      <root>
        <mxCell id="0" />
        <mxCell id="1" parent="0" />
        <mxCell id="m333D_E71mWaQX_FOWle-1" value="" style="rounded=0;whiteSpace=wrap;html=1;movable=0;resizable=0;rotatable=0;deletable=0;editable=0;locked=1;connectable=0;" vertex="1" parent="1">
          <mxGeometry x="10" y="210" width="1630" height="100" as="geometry" />
        </mxCell>
        <mxCell id="m333D_E71mWaQX_FOWle-2" value="" style="rounded=0;whiteSpace=wrap;html=1;movable=0;resizable=0;rotatable=0;deletable=0;editable=0;locked=1;connectable=0;" vertex="1" parent="1">
          <mxGeometry x="10" y="310" width="1630" height="180" as="geometry" />
        </mxCell>
        <mxCell id="m333D_E71mWaQX_FOWle-3" value="" style="rounded=0;whiteSpace=wrap;html=1;movable=0;resizable=0;rotatable=0;deletable=0;editable=0;locked=1;connectable=0;" vertex="1" parent="1">
          <mxGeometry x="10" y="590" width="1630" height="180" as="geometry" />
        </mxCell>
        <mxCell id="m333D_E71mWaQX_FOWle-4" value="" style="rounded=0;whiteSpace=wrap;html=1;movable=0;resizable=0;rotatable=0;deletable=0;editable=0;locked=1;connectable=0;" vertex="1" parent="1">
          <mxGeometry x="10" y="490" width="1630" height="100" as="geometry" />
        </mxCell>
        <mxCell id="m333D_E71mWaQX_FOWle-6" value="" style="endArrow=none;html=1;rounded=0;entryX=0.083;entryY=0;entryDx=0;entryDy=0;entryPerimeter=0;exitX=0.082;exitY=0.998;exitDx=0;exitDy=0;exitPerimeter=0;" edge="1" parent="1" source="m333D_E71mWaQX_FOWle-3" target="m333D_E71mWaQX_FOWle-1">
          <mxGeometry width="50" height="50" relative="1" as="geometry">
            <mxPoint x="140" y="772" as="sourcePoint" />
            <mxPoint x="860" y="570" as="targetPoint" />
          </mxGeometry>
        </mxCell>
        <mxCell id="m333D_E71mWaQX_FOWle-7" value="&lt;font style=&quot;font-size: 23px;&quot;&gt;Host&lt;/font&gt;" style="text;html=1;align=center;verticalAlign=middle;resizable=0;points=[];autosize=1;strokeColor=none;fillColor=none;" vertex="1" parent="1">
          <mxGeometry x="35" y="240" width="70" height="40" as="geometry" />
        </mxCell>
        <mxCell id="m333D_E71mWaQX_FOWle-10" value="&lt;font style=&quot;font-size: 23px;&quot;&gt;Con&lt;/font&gt;" style="text;html=1;align=center;verticalAlign=middle;resizable=0;points=[];autosize=1;strokeColor=none;fillColor=none;" vertex="1" parent="1">
          <mxGeometry x="35" y="380" width="70" height="40" as="geometry" />
        </mxCell>
        <mxCell id="m333D_E71mWaQX_FOWle-11" value="&lt;font style=&quot;font-size: 23px;&quot;&gt;DHT&lt;/font&gt;" style="text;html=1;align=center;verticalAlign=middle;resizable=0;points=[];autosize=1;strokeColor=none;fillColor=none;" vertex="1" parent="1">
          <mxGeometry x="35" y="520" width="70" height="40" as="geometry" />
        </mxCell>
        <mxCell id="m333D_E71mWaQX_FOWle-12" value="&lt;font style=&quot;font-size: 23px;&quot;&gt;Con&lt;/font&gt;" style="text;html=1;align=center;verticalAlign=middle;resizable=0;points=[];autosize=1;strokeColor=none;fillColor=none;" vertex="1" parent="1">
          <mxGeometry x="35" y="670" width="70" height="40" as="geometry" />
        </mxCell>
        <mxCell id="m333D_E71mWaQX_FOWle-16" value="" style="endArrow=none;html=1;rounded=0;fillColor=#008a00;strokeColor=#005700;strokeWidth=6;" edge="1" parent="1">
          <mxGeometry width="50" height="50" relative="1" as="geometry">
            <mxPoint x="150" y="229.58" as="sourcePoint" />
            <mxPoint x="300" y="229.58" as="targetPoint" />
          </mxGeometry>
        </mxCell>
        <mxCell id="m333D_E71mWaQX_FOWle-17" value="" style="endArrow=none;html=1;rounded=0;fillColor=#008a00;strokeColor=#005700;strokeWidth=6;" edge="1" parent="1">
          <mxGeometry width="50" height="50" relative="1" as="geometry">
            <mxPoint x="300" y="229.58" as="sourcePoint" />
            <mxPoint x="300" y="289.58" as="targetPoint" />
          </mxGeometry>
        </mxCell>
        <mxCell id="m333D_E71mWaQX_FOWle-18" value="" style="endArrow=none;html=1;rounded=0;fillColor=#008a00;strokeColor=#005700;strokeWidth=6;" edge="1" parent="1">
          <mxGeometry width="50" height="50" relative="1" as="geometry">
            <mxPoint x="450" y="229.58" as="sourcePoint" />
            <mxPoint x="450" y="289.58" as="targetPoint" />
          </mxGeometry>
        </mxCell>
        <mxCell id="m333D_E71mWaQX_FOWle-19" value="" style="endArrow=none;html=1;rounded=0;fillColor=#008a00;strokeColor=#005700;strokeWidth=6;" edge="1" parent="1">
          <mxGeometry width="50" height="50" relative="1" as="geometry">
            <mxPoint x="300" y="289.58" as="sourcePoint" />
            <mxPoint x="450" y="289.58" as="targetPoint" />
          </mxGeometry>
        </mxCell>
        <mxCell id="m333D_E71mWaQX_FOWle-20" value="" style="endArrow=none;html=1;rounded=0;fillColor=#008a00;strokeColor=#005700;strokeWidth=6;" edge="1" parent="1">
          <mxGeometry width="50" height="50" relative="1" as="geometry">
            <mxPoint x="450" y="229.58" as="sourcePoint" />
            <mxPoint x="540" y="230" as="targetPoint" />
          </mxGeometry>
        </mxCell>
        <mxCell id="m333D_E71mWaQX_FOWle-21" value="" style="endArrow=none;html=1;rounded=0;fillColor=#008a00;strokeColor=#005700;strokeWidth=6;" edge="1" parent="1">
          <mxGeometry width="50" height="50" relative="1" as="geometry">
            <mxPoint x="150" y="510" as="sourcePoint" />
            <mxPoint x="540" y="510" as="targetPoint" />
          </mxGeometry>
        </mxCell>
        <mxCell id="m333D_E71mWaQX_FOWle-22" value="" style="endArrow=none;html=1;rounded=0;fillColor=#008a00;strokeColor=#005700;strokeWidth=6;" edge="1" parent="1">
          <mxGeometry width="50" height="50" relative="1" as="geometry">
            <mxPoint x="540" y="509.65999999999997" as="sourcePoint" />
            <mxPoint x="540" y="569.6600000000001" as="targetPoint" />
          </mxGeometry>
        </mxCell>
        <mxCell id="m333D_E71mWaQX_FOWle-23" value="" style="endArrow=none;html=1;rounded=0;fillColor=#008a00;strokeColor=#005700;strokeWidth=6;" edge="1" parent="1">
          <mxGeometry width="50" height="50" relative="1" as="geometry">
            <mxPoint x="540" y="569.6600000000001" as="sourcePoint" />
            <mxPoint x="670" y="569.6600000000001" as="targetPoint" />
          </mxGeometry>
        </mxCell>
        <mxCell id="m333D_E71mWaQX_FOWle-24" value="" style="endArrow=none;html=1;rounded=0;fillColor=#008a00;strokeColor=#005700;strokeWidth=6;" edge="1" parent="1">
          <mxGeometry width="50" height="50" relative="1" as="geometry">
            <mxPoint x="670" y="509.65999999999997" as="sourcePoint" />
            <mxPoint x="670" y="569.6600000000001" as="targetPoint" />
          </mxGeometry>
        </mxCell>
        <mxCell id="m333D_E71mWaQX_FOWle-25" value="" style="endArrow=none;html=1;rounded=0;fillColor=#008a00;strokeColor=#005700;strokeWidth=6;" edge="1" parent="1">
          <mxGeometry width="50" height="50" relative="1" as="geometry">
            <mxPoint x="670" y="509.65999999999997" as="sourcePoint" />
            <mxPoint x="800" y="509.65999999999997" as="targetPoint" />
          </mxGeometry>
        </mxCell>
        <mxCell id="m333D_E71mWaQX_FOWle-27" value="" style="endArrow=none;html=1;rounded=0;fillColor=#008a00;strokeColor=#005700;strokeWidth=6;" edge="1" parent="1">
          <mxGeometry width="50" height="50" relative="1" as="geometry">
            <mxPoint x="800" y="569.6600000000001" as="sourcePoint" />
            <mxPoint x="880" y="569.6600000000001" as="targetPoint" />
          </mxGeometry>
        </mxCell>
        <mxCell id="m333D_E71mWaQX_FOWle-29" value="" style="endArrow=none;html=1;rounded=0;fillColor=#008a00;strokeColor=#005700;strokeWidth=6;" edge="1" parent="1">
          <mxGeometry width="50" height="50" relative="1" as="geometry">
            <mxPoint x="880" y="509.65999999999997" as="sourcePoint" />
            <mxPoint x="920" y="509.65999999999997" as="targetPoint" />
          </mxGeometry>
        </mxCell>
        <mxCell id="m333D_E71mWaQX_FOWle-30" value="" style="endArrow=none;html=1;rounded=0;fillColor=#008a00;strokeColor=#005700;strokeWidth=6;" edge="1" parent="1">
          <mxGeometry width="50" height="50" relative="1" as="geometry">
            <mxPoint x="920" y="569.6600000000001" as="sourcePoint" />
            <mxPoint x="1000" y="569.6600000000001" as="targetPoint" />
          </mxGeometry>
        </mxCell>
        <mxCell id="m333D_E71mWaQX_FOWle-31" value="" style="endArrow=none;html=1;rounded=0;fillColor=#008a00;strokeColor=#005700;strokeWidth=6;" edge="1" parent="1">
          <mxGeometry width="50" height="50" relative="1" as="geometry">
            <mxPoint x="920" y="509.65999999999997" as="sourcePoint" />
            <mxPoint x="920" y="569.6600000000001" as="targetPoint" />
          </mxGeometry>
        </mxCell>
        <mxCell id="m333D_E71mWaQX_FOWle-32" value="" style="endArrow=none;html=1;rounded=0;fillColor=#008a00;strokeColor=#005700;strokeWidth=6;" edge="1" parent="1">
          <mxGeometry width="50" height="50" relative="1" as="geometry">
            <mxPoint x="1000" y="509.65999999999997" as="sourcePoint" />
            <mxPoint x="1000" y="569.6600000000001" as="targetPoint" />
          </mxGeometry>
        </mxCell>
        <mxCell id="m333D_E71mWaQX_FOWle-33" value="" style="endArrow=none;html=1;rounded=0;fillColor=#008a00;strokeColor=#005700;strokeWidth=6;" edge="1" parent="1">
          <mxGeometry width="50" height="50" relative="1" as="geometry">
            <mxPoint x="1000" y="509.65999999999997" as="sourcePoint" />
            <mxPoint x="1120" y="509.65999999999997" as="targetPoint" />
          </mxGeometry>
        </mxCell>
        <mxCell id="m333D_E71mWaQX_FOWle-35" value="" style="endArrow=none;html=1;rounded=0;fillColor=#008a00;strokeColor=#005700;strokeWidth=6;" edge="1" parent="1">
          <mxGeometry width="50" height="50" relative="1" as="geometry">
            <mxPoint x="1120" y="569.6600000000001" as="sourcePoint" />
            <mxPoint x="1200" y="569.6600000000001" as="targetPoint" />
          </mxGeometry>
        </mxCell>
        <mxCell id="m333D_E71mWaQX_FOWle-36" value="" style="endArrow=none;html=1;rounded=0;fillColor=#008a00;strokeColor=#005700;strokeWidth=6;" edge="1" parent="1">
          <mxGeometry width="50" height="50" relative="1" as="geometry">
            <mxPoint x="1200" y="509.65999999999997" as="sourcePoint" />
            <mxPoint x="1200" y="569.6600000000001" as="targetPoint" />
          </mxGeometry>
        </mxCell>
        <mxCell id="m333D_E71mWaQX_FOWle-38" value="" style="endArrow=none;html=1;rounded=0;fillColor=#008a00;strokeColor=#005700;strokeWidth=6;dashed=1;" edge="1" parent="1">
          <mxGeometry width="50" height="50" relative="1" as="geometry">
            <mxPoint x="1200" y="509.65999999999997" as="sourcePoint" />
            <mxPoint x="1320" y="509.65999999999997" as="targetPoint" />
          </mxGeometry>
        </mxCell>
        <mxCell id="m333D_E71mWaQX_FOWle-40" value="" style="endArrow=none;html=1;rounded=0;strokeWidth=5;" edge="1" parent="1">
          <mxGeometry width="50" height="50" relative="1" as="geometry">
            <mxPoint x="539.8" y="320" as="sourcePoint" />
            <mxPoint x="539.8" y="310" as="targetPoint" />
            <Array as="points">
              <mxPoint x="539.8" y="300" />
            </Array>
          </mxGeometry>
        </mxCell>
        <mxCell id="m333D_E71mWaQX_FOWle-41" value="" style="endArrow=none;html=1;rounded=0;strokeWidth=5;" edge="1" parent="1">
          <mxGeometry width="50" height="50" relative="1" as="geometry">
            <mxPoint x="450" y="320" as="sourcePoint" />
            <mxPoint x="450" y="310" as="targetPoint" />
            <Array as="points">
              <mxPoint x="450" y="300" />
            </Array>
          </mxGeometry>
        </mxCell>
        <mxCell id="m333D_E71mWaQX_FOWle-42" value="1040" style="text;html=1;align=center;verticalAlign=middle;whiteSpace=wrap;rounded=0;" vertex="1" parent="1">
          <mxGeometry x="510" y="310" width="60" height="30" as="geometry" />
        </mxCell>
        <mxCell id="m333D_E71mWaQX_FOWle-43" value="1000" style="text;html=1;align=center;verticalAlign=middle;whiteSpace=wrap;rounded=0;" vertex="1" parent="1">
          <mxGeometry x="420" y="310" width="60" height="30" as="geometry" />
        </mxCell>
        <mxCell id="m333D_E71mWaQX_FOWle-44" value="" style="endArrow=none;html=1;rounded=0;strokeWidth=5;" edge="1" parent="1">
          <mxGeometry width="50" height="50" relative="1" as="geometry">
            <mxPoint x="300" y="320" as="sourcePoint" />
            <mxPoint x="300" y="310" as="targetPoint" />
            <Array as="points">
              <mxPoint x="300" y="300" />
            </Array>
          </mxGeometry>
        </mxCell>
        <mxCell id="m333D_E71mWaQX_FOWle-45" value="0" style="text;html=1;align=center;verticalAlign=middle;whiteSpace=wrap;rounded=0;" vertex="1" parent="1">
          <mxGeometry x="270" y="310" width="60" height="30" as="geometry" />
        </mxCell>
        <mxCell id="m333D_E71mWaQX_FOWle-46" value="" style="endArrow=none;html=1;rounded=0;fillColor=#008a00;strokeColor=#005700;strokeWidth=6;" edge="1" parent="1">
          <mxGeometry width="50" height="50" relative="1" as="geometry">
            <mxPoint x="540" y="230" as="sourcePoint" />
            <mxPoint x="540.14" y="290" as="targetPoint" />
          </mxGeometry>
        </mxCell>
        <mxCell id="m333D_E71mWaQX_FOWle-49" value="Standby" style="shape=hexagon;perimeter=hexagonPerimeter2;whiteSpace=wrap;html=1;fixedSize=1;" vertex="1" parent="1">
          <mxGeometry x="150" y="360" width="150" height="90" as="geometry" />
        </mxCell>
        <mxCell id="m333D_E71mWaQX_FOWle-50" value="Send start signal" style="shape=hexagon;perimeter=hexagonPerimeter2;whiteSpace=wrap;html=1;fixedSize=1;" vertex="1" parent="1">
          <mxGeometry x="300" y="360" width="150" height="90" as="geometry" />
        </mxCell>
        <mxCell id="m333D_E71mWaQX_FOWle-53" value="Confirmation signal for&amp;nbsp;&lt;div&gt;DHT22&lt;/div&gt;" style="shape=hexagon;perimeter=hexagonPerimeter2;whiteSpace=wrap;html=1;fixedSize=1;" vertex="1" parent="1">
          <mxGeometry x="450" y="360" width="100" height="90" as="geometry" />
        </mxCell>
        <mxCell id="m333D_E71mWaQX_FOWle-54" value="" style="endArrow=none;html=1;rounded=0;strokeWidth=5;" edge="1" parent="1">
          <mxGeometry width="50" height="50" relative="1" as="geometry">
            <mxPoint x="539.89" y="600" as="sourcePoint" />
            <mxPoint x="539.89" y="590" as="targetPoint" />
            <Array as="points">
              <mxPoint x="539.89" y="580" />
            </Array>
          </mxGeometry>
        </mxCell>
        <mxCell id="m333D_E71mWaQX_FOWle-57" value="Host switches to&amp;nbsp;&lt;div&gt;input mode &lt;br&gt;and awaits zero (low) from DTH22&lt;/div&gt;" style="shape=hexagon;perimeter=hexagonPerimeter2;whiteSpace=wrap;html=1;fixedSize=1;" vertex="1" parent="1">
          <mxGeometry x="550" y="360" width="130" height="90" as="geometry" />
        </mxCell>
        <mxCell id="m333D_E71mWaQX_FOWle-59" value="1040" style="text;html=1;align=center;verticalAlign=middle;whiteSpace=wrap;rounded=0;" vertex="1" parent="1">
          <mxGeometry x="510" y="590" width="60" height="30" as="geometry" />
        </mxCell>
        <mxCell id="m333D_E71mWaQX_FOWle-60" value="" style="endArrow=none;html=1;rounded=0;strokeWidth=5;" edge="1" parent="1">
          <mxGeometry width="50" height="50" relative="1" as="geometry">
            <mxPoint x="670" y="600" as="sourcePoint" />
            <mxPoint x="670" y="590" as="targetPoint" />
            <Array as="points">
              <mxPoint x="670" y="580" />
            </Array>
          </mxGeometry>
        </mxCell>
        <mxCell id="m333D_E71mWaQX_FOWle-62" value="1120" style="text;html=1;align=center;verticalAlign=middle;whiteSpace=wrap;rounded=0;" vertex="1" parent="1">
          <mxGeometry x="640" y="590" width="60" height="30" as="geometry" />
        </mxCell>
        <mxCell id="m333D_E71mWaQX_FOWle-64" value="1250" style="text;html=1;align=center;verticalAlign=middle;whiteSpace=wrap;rounded=0;" vertex="1" parent="1">
          <mxGeometry x="850" y="590" width="60" height="30" as="geometry" />
        </mxCell>
        <mxCell id="m333D_E71mWaQX_FOWle-65" value="" style="endArrow=none;html=1;rounded=0;strokeWidth=5;" edge="1" parent="1">
          <mxGeometry width="50" height="50" relative="1" as="geometry">
            <mxPoint x="880" y="600" as="sourcePoint" />
            <mxPoint x="880" y="590" as="targetPoint" />
            <Array as="points">
              <mxPoint x="880" y="580" />
            </Array>
          </mxGeometry>
        </mxCell>
        <mxCell id="m333D_E71mWaQX_FOWle-66" value="" style="endArrow=none;html=1;rounded=0;strokeWidth=5;" edge="1" parent="1">
          <mxGeometry width="50" height="50" relative="1" as="geometry">
            <mxPoint x="920" y="600" as="sourcePoint" />
            <mxPoint x="920" y="590" as="targetPoint" />
            <Array as="points">
              <mxPoint x="920" y="580" />
            </Array>
          </mxGeometry>
        </mxCell>
        <mxCell id="m333D_E71mWaQX_FOWle-67" value="1277" style="text;html=1;align=center;verticalAlign=middle;whiteSpace=wrap;rounded=0;" vertex="1" parent="1">
          <mxGeometry x="890" y="590" width="60" height="30" as="geometry" />
        </mxCell>
        <mxCell id="m333D_E71mWaQX_FOWle-68" value="" style="endArrow=none;html=1;rounded=0;strokeWidth=5;" edge="1" parent="1">
          <mxGeometry width="50" height="50" relative="1" as="geometry">
            <mxPoint x="1000" y="600" as="sourcePoint" />
            <mxPoint x="1000" y="590" as="targetPoint" />
            <Array as="points">
              <mxPoint x="1000" y="580" />
            </Array>
          </mxGeometry>
        </mxCell>
        <mxCell id="m333D_E71mWaQX_FOWle-69" value="1327" style="text;html=1;align=center;verticalAlign=middle;whiteSpace=wrap;rounded=0;" vertex="1" parent="1">
          <mxGeometry x="970" y="590" width="60" height="30" as="geometry" />
        </mxCell>
        <mxCell id="m333D_E71mWaQX_FOWle-71" value="" style="endArrow=none;html=1;rounded=0;strokeWidth=5;" edge="1" parent="1">
          <mxGeometry width="50" height="50" relative="1" as="geometry">
            <mxPoint x="1200" y="600" as="sourcePoint" />
            <mxPoint x="1200" y="590" as="targetPoint" />
            <Array as="points">
              <mxPoint x="1200" y="580" />
            </Array>
          </mxGeometry>
        </mxCell>
        <mxCell id="m333D_E71mWaQX_FOWle-73" value="1447" style="text;html=1;align=center;verticalAlign=middle;whiteSpace=wrap;rounded=0;" vertex="1" parent="1">
          <mxGeometry x="1170" y="590" width="60" height="30" as="geometry" />
        </mxCell>
        <mxCell id="m333D_E71mWaQX_FOWle-74" value="" style="endArrow=none;html=1;rounded=0;strokeWidth=5;" edge="1" parent="1">
          <mxGeometry width="50" height="50" relative="1" as="geometry">
            <mxPoint x="1623.83" y="600" as="sourcePoint" />
            <mxPoint x="1623.83" y="590" as="targetPoint" />
            <Array as="points">
              <mxPoint x="1623.83" y="580" />
            </Array>
          </mxGeometry>
        </mxCell>
        <mxCell id="m333D_E71mWaQX_FOWle-75" value="5000" style="text;html=1;align=center;verticalAlign=middle;whiteSpace=wrap;rounded=0;" vertex="1" parent="1">
          <mxGeometry x="1594" y="590" width="60" height="30" as="geometry" />
        </mxCell>
        <mxCell id="m333D_E71mWaQX_FOWle-79" value="" style="endArrow=none;html=1;rounded=0;strokeWidth=5;" edge="1" parent="1">
          <mxGeometry width="50" height="50" relative="1" as="geometry">
            <mxPoint x="1623.8999999999999" y="320" as="sourcePoint" />
            <mxPoint x="1623.8999999999999" y="310" as="targetPoint" />
            <Array as="points">
              <mxPoint x="1623.8999999999999" y="300" />
            </Array>
          </mxGeometry>
        </mxCell>
        <mxCell id="m333D_E71mWaQX_FOWle-80" value="5000" style="text;html=1;align=center;verticalAlign=middle;whiteSpace=wrap;rounded=0;" vertex="1" parent="1">
          <mxGeometry x="1594" y="310" width="60" height="30" as="geometry" />
        </mxCell>
        <mxCell id="m333D_E71mWaQX_FOWle-83" value="Host &lt;span style=&quot;background-color: initial;&quot;&gt;awaits&amp;nbsp;&lt;/span&gt;&lt;div&gt;&lt;span style=&quot;background-color: initial;&quot;&gt;one (high)&amp;nbsp;&lt;/span&gt;&lt;/div&gt;&lt;div&gt;&lt;span style=&quot;background-color: initial;&quot;&gt;from DTH22&lt;br&gt;(confirmation)&lt;/span&gt;&lt;/div&gt;" style="shape=hexagon;perimeter=hexagonPerimeter2;whiteSpace=wrap;html=1;fixedSize=1;" vertex="1" parent="1">
          <mxGeometry x="680" y="360" width="130" height="90" as="geometry" />
        </mxCell>
        <mxCell id="m333D_E71mWaQX_FOWle-84" value="" style="shape=hexagon;perimeter=hexagonPerimeter2;whiteSpace=wrap;html=1;fixedSize=1;" vertex="1" parent="1">
          <mxGeometry x="810" y="360" width="820" height="90" as="geometry" />
        </mxCell>
        <mxCell id="m333D_E71mWaQX_FOWle-85" value="General info:&amp;nbsp;&lt;br&gt;All data in total is 40 bits&lt;br&gt;32 bits is raw data&amp;nbsp;&lt;br&gt;Last 8 bits is checksum" style="text;html=1;align=center;verticalAlign=middle;resizable=0;points=[];autosize=1;strokeColor=none;fillColor=none;" vertex="1" parent="1">
          <mxGeometry x="820" y="365" width="150" height="70" as="geometry" />
        </mxCell>
        <mxCell id="m333D_E71mWaQX_FOWle-86" value="Binary logic plus timing:&amp;nbsp;&lt;div&gt;Each time before 0 or 1 is send DHT waits 50us&lt;br&gt;After the 50us wait time 0 or 1 is send&lt;br&gt;26-28us = 0&lt;br&gt;70us = 1&lt;/div&gt;" style="text;html=1;align=center;verticalAlign=middle;resizable=0;points=[];autosize=1;strokeColor=none;fillColor=none;" vertex="1" parent="1">
          <mxGeometry x="980" y="360" width="280" height="90" as="geometry" />
        </mxCell>
        <mxCell id="m333D_E71mWaQX_FOWle-87" value="This loop continues until all 40 bits is send&lt;br&gt;Each time data is requested the entire&lt;div&gt;timing diagram logic has to be executed&amp;nbsp;&lt;/div&gt;&lt;div&gt;from the&amp;nbsp;&lt;span style=&quot;background-color: initial;&quot;&gt;beginning&lt;/span&gt;&lt;/div&gt;" style="text;html=1;align=center;verticalAlign=middle;resizable=0;points=[];autosize=1;strokeColor=none;fillColor=none;" vertex="1" parent="1">
          <mxGeometry x="1240" y="370" width="250" height="70" as="geometry" />
        </mxCell>
        <mxCell id="m333D_E71mWaQX_FOWle-88" value="Siddenote:&amp;nbsp;&lt;div&gt;Do not forget.&lt;/div&gt;&lt;div&gt;Data is constructed&amp;nbsp;&lt;/div&gt;&lt;div&gt;from right to left&lt;/div&gt;" style="text;html=1;align=center;verticalAlign=middle;resizable=0;points=[];autosize=1;strokeColor=none;fillColor=none;" vertex="1" parent="1">
          <mxGeometry x="1490" y="365" width="130" height="70" as="geometry" />
        </mxCell>
        <mxCell id="m333D_E71mWaQX_FOWle-89" value="Sends a first&amp;nbsp;&lt;div&gt;confirmation signal&amp;nbsp;&lt;/div&gt;&lt;div&gt;which is 0 (low)&lt;/div&gt;" style="shape=hexagon;perimeter=hexagonPerimeter2;whiteSpace=wrap;html=1;fixedSize=1;" vertex="1" parent="1">
          <mxGeometry x="530" y="620" width="140" height="90" as="geometry" />
        </mxCell>
        <mxCell id="m333D_E71mWaQX_FOWle-91" value="Standby" style="shape=hexagon;perimeter=hexagonPerimeter2;whiteSpace=wrap;html=1;fixedSize=1;" vertex="1" parent="1">
          <mxGeometry x="150" y="620" width="380" height="90" as="geometry" />
        </mxCell>
        <mxCell id="m333D_E71mWaQX_FOWle-107" value="" style="endArrow=none;html=1;rounded=0;fillColor=#008a00;strokeColor=#005700;strokeWidth=6;" edge="1" parent="1">
          <mxGeometry width="50" height="50" relative="1" as="geometry">
            <mxPoint x="880" y="509.99999999999994" as="sourcePoint" />
            <mxPoint x="880" y="570.0000000000001" as="targetPoint" />
          </mxGeometry>
        </mxCell>
        <mxCell id="m333D_E71mWaQX_FOWle-72" value="1397" style="text;html=1;align=center;verticalAlign=middle;whiteSpace=wrap;rounded=0;" vertex="1" parent="1">
          <mxGeometry x="1090" y="590" width="60" height="30" as="geometry" />
        </mxCell>
        <mxCell id="m333D_E71mWaQX_FOWle-34" value="" style="endArrow=none;html=1;rounded=0;fillColor=#008a00;strokeColor=#005700;strokeWidth=6;" edge="1" parent="1">
          <mxGeometry width="50" height="50" relative="1" as="geometry">
            <mxPoint x="1120" y="509.65999999999997" as="sourcePoint" />
            <mxPoint x="1120" y="569.6600000000001" as="targetPoint" />
          </mxGeometry>
        </mxCell>
        <mxCell id="m333D_E71mWaQX_FOWle-26" value="" style="endArrow=none;html=1;rounded=0;fillColor=#008a00;strokeColor=#005700;strokeWidth=6;" edge="1" parent="1">
          <mxGeometry width="50" height="50" relative="1" as="geometry">
            <mxPoint x="800" y="509.65999999999997" as="sourcePoint" />
            <mxPoint x="800" y="569.6600000000001" as="targetPoint" />
          </mxGeometry>
        </mxCell>
        <mxCell id="m333D_E71mWaQX_FOWle-63" value="1200" style="text;html=1;align=center;verticalAlign=middle;whiteSpace=wrap;rounded=0;" vertex="1" parent="1">
          <mxGeometry x="770" y="590" width="60" height="30" as="geometry" />
        </mxCell>
        <mxCell id="m333D_E71mWaQX_FOWle-61" value="" style="endArrow=none;html=1;rounded=0;strokeWidth=5;" edge="1" parent="1">
          <mxGeometry width="50" height="50" relative="1" as="geometry">
            <mxPoint x="800" y="600" as="sourcePoint" />
            <mxPoint x="800" y="590" as="targetPoint" />
            <Array as="points">
              <mxPoint x="800" y="580" />
            </Array>
          </mxGeometry>
        </mxCell>
        <mxCell id="m333D_E71mWaQX_FOWle-70" value="" style="endArrow=none;html=1;rounded=0;strokeWidth=5;" edge="1" parent="1">
          <mxGeometry width="50" height="50" relative="1" as="geometry">
            <mxPoint x="1120" y="600" as="sourcePoint" />
            <mxPoint x="1120" y="590" as="targetPoint" />
            <Array as="points">
              <mxPoint x="1120" y="580" />
            </Array>
          </mxGeometry>
        </mxCell>
        <mxCell id="m333D_E71mWaQX_FOWle-92" value="Sending echo about sending data" style="shape=hexagon;perimeter=hexagonPerimeter2;whiteSpace=wrap;html=1;fixedSize=1;" vertex="1" parent="1">
          <mxGeometry x="800" y="620" width="70" height="90" as="geometry" />
        </mxCell>
        <mxCell id="m333D_E71mWaQX_FOWle-93" value="Sends&lt;div&gt;0&lt;/div&gt;" style="shape=hexagon;perimeter=hexagonPerimeter2;whiteSpace=wrap;html=1;fixedSize=1;" vertex="1" parent="1">
          <mxGeometry x="870" y="620" width="50" height="90" as="geometry" />
        </mxCell>
        <mxCell id="m333D_E71mWaQX_FOWle-94" value="Sending echo about sending data" style="shape=hexagon;perimeter=hexagonPerimeter2;whiteSpace=wrap;html=1;fixedSize=1;" vertex="1" parent="1">
          <mxGeometry x="920" y="620" width="80" height="90" as="geometry" />
        </mxCell>
        <mxCell id="m333D_E71mWaQX_FOWle-95" value="Sends&lt;div&gt;1&lt;/div&gt;" style="shape=hexagon;perimeter=hexagonPerimeter2;whiteSpace=wrap;html=1;fixedSize=1;" vertex="1" parent="1">
          <mxGeometry x="1000" y="620" width="120" height="90" as="geometry" />
        </mxCell>
        <mxCell id="m333D_E71mWaQX_FOWle-90" value="Sends a second confirmation signal&amp;nbsp;&lt;div&gt;which is 1 (high)&lt;/div&gt;" style="shape=hexagon;perimeter=hexagonPerimeter2;whiteSpace=wrap;html=1;fixedSize=1;" vertex="1" parent="1">
          <mxGeometry x="670" y="620" width="130" height="90" as="geometry" />
        </mxCell>
        <mxCell id="m333D_E71mWaQX_FOWle-96" value="Repeat steps from 1200us until 40 bits are written" style="shape=hexagon;perimeter=hexagonPerimeter2;whiteSpace=wrap;html=1;fixedSize=1;" vertex="1" parent="1">
          <mxGeometry x="1120" y="620" width="510" height="90" as="geometry" />
        </mxCell>
        <mxCell id="m333D_E71mWaQX_FOWle-111" value="" style="endArrow=none;html=1;rounded=0;exitX=0.069;exitY=0.499;exitDx=0;exitDy=0;exitPerimeter=0;" edge="1" parent="1" source="m333D_E71mWaQX_FOWle-114">
          <mxGeometry width="50" height="50" relative="1" as="geometry">
            <mxPoint x="950" y="725" as="sourcePoint" />
            <mxPoint x="958.75" y="830" as="targetPoint" />
          </mxGeometry>
        </mxCell>
        <mxCell id="m333D_E71mWaQX_FOWle-112" value="Just a example, after sending a echo it can be 1 or 0" style="text;html=1;align=center;verticalAlign=middle;whiteSpace=wrap;rounded=0;" vertex="1" parent="1">
          <mxGeometry x="890" y="830" width="160" height="30" as="geometry" />
        </mxCell>
        <mxCell id="m333D_E71mWaQX_FOWle-114" value="" style="shape=curlyBracket;whiteSpace=wrap;html=1;rounded=1;flipH=1;labelPosition=right;verticalLabelPosition=middle;align=left;verticalAlign=middle;rotation=90;" vertex="1" parent="1">
          <mxGeometry x="940" y="610" width="20" height="220" as="geometry" />
        </mxCell>
        <mxCell id="m333D_E71mWaQX_FOWle-115" value="&lt;font style=&quot;font-size: 9px;&quot;&gt;27-28us&lt;/font&gt;" style="text;html=1;align=center;verticalAlign=middle;whiteSpace=wrap;rounded=0;" vertex="1" parent="1">
          <mxGeometry x="870" y="510" width="60" height="30" as="geometry" />
        </mxCell>
        <mxCell id="m333D_E71mWaQX_FOWle-116" value="&lt;font style=&quot;font-size: 9px;&quot;&gt;70us&lt;/font&gt;" style="text;html=1;align=center;verticalAlign=middle;whiteSpace=wrap;rounded=0;" vertex="1" parent="1">
          <mxGeometry x="1030" y="510" width="60" height="30" as="geometry" />
        </mxCell>
        <mxCell id="m333D_E71mWaQX_FOWle-117" value="&lt;font size=&quot;1&quot;&gt;50us&lt;/font&gt;" style="text;html=1;align=center;verticalAlign=middle;whiteSpace=wrap;rounded=0;" vertex="1" parent="1">
          <mxGeometry x="930" y="540" width="60" height="30" as="geometry" />
        </mxCell>
        <mxCell id="m333D_E71mWaQX_FOWle-118" value="&lt;font size=&quot;1&quot;&gt;50us&lt;/font&gt;" style="text;html=1;align=center;verticalAlign=middle;whiteSpace=wrap;rounded=0;" vertex="1" parent="1">
          <mxGeometry x="810" y="540" width="60" height="30" as="geometry" />
        </mxCell>
        <mxCell id="m333D_E71mWaQX_FOWle-119" value="&lt;font size=&quot;1&quot;&gt;50us&lt;/font&gt;" style="text;html=1;align=center;verticalAlign=middle;whiteSpace=wrap;rounded=0;" vertex="1" parent="1">
          <mxGeometry x="1130" y="540" width="60" height="30" as="geometry" />
        </mxCell>
        <mxCell id="m333D_E71mWaQX_FOWle-120" value="&lt;font size=&quot;1&quot;&gt;80us&lt;/font&gt;" style="text;html=1;align=center;verticalAlign=middle;whiteSpace=wrap;rounded=0;" vertex="1" parent="1">
          <mxGeometry x="705" y="510" width="60" height="30" as="geometry" />
        </mxCell>
        <mxCell id="m333D_E71mWaQX_FOWle-121" value="&lt;font size=&quot;1&quot;&gt;80us&lt;/font&gt;" style="text;html=1;align=center;verticalAlign=middle;whiteSpace=wrap;rounded=0;" vertex="1" parent="1">
          <mxGeometry x="580" y="540" width="60" height="30" as="geometry" />
        </mxCell>
        <mxCell id="m333D_E71mWaQX_FOWle-122" value="&lt;font size=&quot;1&quot;&gt;1000us&lt;/font&gt;" style="text;html=1;align=center;verticalAlign=middle;whiteSpace=wrap;rounded=0;" vertex="1" parent="1">
          <mxGeometry x="345" y="260" width="60" height="30" as="geometry" />
        </mxCell>
        <mxCell id="m333D_E71mWaQX_FOWle-123" value="&lt;font size=&quot;1&quot;&gt;20-40us&lt;/font&gt;" style="text;html=1;align=center;verticalAlign=middle;whiteSpace=wrap;rounded=0;" vertex="1" parent="1">
          <mxGeometry x="470" y="230" width="50" height="30" as="geometry" />
        </mxCell>
      </root>
    </mxGraphModel>
  </diagram>
</mxfile>
